<svg width="26" height="26" viewBox="0 0 26 26" fill="none" xmlns="http://www.w3.org/2000/svg">
<path d="M0.54219 4.83214C4.11059 7.85418 10.372 13.1709 12.2123 14.8286C12.4594 15.0524 12.7244 15.1661 12.9994 15.1661C13.274 15.1661 13.5385 15.0534 13.785 14.8308C15.6269 13.1714 21.8883 7.85418 25.4567 4.83214C25.6789 4.64435 25.7128 4.31427 25.5329 4.08469C25.1171 3.55418 24.4972 3.25 23.8328 3.25H2.16612C1.50175 3.25 0.881764 3.55418 0.466018 4.08474C0.286151 4.31427 0.320022 4.64435 0.54219 4.83214Z" fill="#45A090"/>
<path d="M25.6858 6.46993C25.4938 6.38056 25.2679 6.41174 25.1082 6.54824C21.1509 9.90295 16.1003 14.203 14.5113 15.6349C13.6194 16.44 12.3816 16.44 11.4876 15.6338C9.79387 14.1077 4.12222 9.28616 0.89182 6.54819C0.730996 6.41169 0.504613 6.38157 0.314184 6.46988C0.122738 6.5588 0 6.7503 0 6.96134V20.5834C0 21.7784 0.971699 22.7501 2.16668 22.7501H23.8334C25.0283 22.7501 26 21.7784 26 20.5834V6.96134C26 6.7503 25.8773 6.55829 25.6858 6.46993Z" fill="#45A090"/>
</svg>
